# File produced by Open Asset Import Library (http://www.assimp.sf.net)
# (assimp v3.1.243586452)

mtllib copperMountain.mtl

# vertex positions
v 239.139206 140.925537 2.550049
v 237.951706 1.959343 7.000445
v 222.011139 128.607834 2.944523
v 202.635437 117.165558 3.310963
v 187.786224 89.706322 4.190345
v 168.785202 78.208633 4.558559
v -236.562927 2.267326 6.990582
v -236.804672 88.520477 4.228322
v 157.294388 69.342422 4.842500
v -132.052658 91.711075 4.126143
v -122.430695 79.224648 4.526021
v -144.561111 84.641075 4.352560
v -236.788803 89.409584 4.199848
v 8.363064 166.430389 1.733255
v 25.118685 154.913345 2.102089
v 3.490211 162.042114 1.873790
v -38.610138 139.243805 2.603906
v -33.747128 138.784958 2.618601
v -41.307690 132.180389 2.830112
v 131.865753 95.677399 3.999121
v 135.019196 84.555191 4.355311
v 123.878372 97.037613 3.955560
v -28.850325 144.510437 2.435242
v -24.875282 143.613358 2.463971
v 78.173042 128.667267 2.942620
v 83.937614 120.680069 3.198411
v 70.207100 127.367744 2.984237
v 41.452110 140.731750 2.556255
v 44.540047 132.765305 2.811380
v 30.840759 142.535660 2.498484
v -174.835876 109.174431 3.566879
v -0.921943 163.379333 1.830965
v -44.850582 131.750488 2.843880
v -57.838905 110.096603 3.537346
v 140.363312 80.532875 4.484125
v 140.390808 74.746315 4.669440
v 54.718433 135.824570 2.713407
v -115.280762 83.649284 4.384322
v -103.754951 82.274445 4.428351
v -71.135391 109.699562 3.550061
v 99.886787 117.081039 3.313670

# UV coordinates
vt 0.053615 0.000000
vt 0.345745 0.002495
vt 0.079509 0.035988
vt 0.103563 0.076698
vt 0.161286 0.107897
vt 0.185457 0.147820
vt 0.345098 0.999492
vt 0.163780 1.000000
vt 0.204095 0.171963
vt 0.157073 0.779907
vt 0.183321 0.759690
vt 0.171935 0.806188
vt 0.161911 0.999967
vt 0.000000 0.484881
vt 0.024211 0.449676
vt 0.009225 0.495119
vt 0.057151 0.583576
vt 0.058115 0.573358
vt 0.071999 0.589244
vt 0.148734 0.225391
vt 0.172115 0.218765
vt 0.145875 0.242173
vt 0.046079 0.563070
vt 0.047965 0.554718
vt 0.079384 0.338204
vt 0.096175 0.326092
vt 0.082116 0.354941
vt 0.054023 0.415358
vt 0.070770 0.408870
vt 0.050231 0.437653
vt 0.120362 0.869798
vt 0.006414 0.504390
vt 0.072903 0.596688
vt 0.118423 0.623977
vt 0.180571 0.207537
vt 0.192735 0.207479
vt 0.064338 0.387484
vt 0.174020 0.744668
vt 0.176910 0.720451
vt 0.119258 0.651914
vt 0.103740 0.292582

# vertex normals
vn 0.000000 -0.032009 -0.999488

# Mesh
g polySurface1
usemtl initialShadingGroup
f 1/1/1 2/2/1 3/3/1
f 3/3/1 2/2/1 4/4/1
f 4/4/1 2/2/1 5/5/1
f 5/5/1 2/2/1 6/6/1
f 7/7/1 8/8/1 2/2/1
f 6/6/1 2/2/1 9/9/1
f 10/10/1 11/11/1 12/12/1
f 8/8/1 13/13/1 2/2/1
f 14/14/1 15/15/1 16/16/1
f 17/17/1 18/18/1 19/19/1
f 20/20/1 21/21/1 22/22/1
f 23/23/1 24/24/1 18/18/1
f 25/25/1 26/26/1 27/27/1
f 28/28/1 29/29/1 30/30/1
f 31/31/1 12/12/1 13/13/1
f 32/32/1 16/16/1 24/24/1
f 33/33/1 19/19/1 34/34/1
f 35/35/1 36/36/1 21/21/1
f 15/15/1 30/30/1 16/16/1
f 16/16/1 30/30/1 24/24/1
f 37/37/1 27/27/1 29/29/1
f 38/38/1 39/39/1 11/11/1
f 40/40/1 34/34/1 39/39/1
f 41/41/1 22/22/1 26/26/1
f 9/9/1 2/2/1 36/36/1
f 18/18/1 24/24/1 19/19/1
f 24/24/1 30/30/1 19/19/1
f 19/19/1 30/30/1 34/34/1
f 30/30/1 29/29/1 34/34/1
f 22/22/1 21/21/1 26/26/1
f 12/12/1 11/11/1 13/13/1
f 13/13/1 11/11/1 2/2/1
f 11/11/1 39/39/1 2/2/1
f 2/2/1 39/39/1 36/36/1
f 39/39/1 34/34/1 36/36/1
f 36/36/1 34/34/1 21/21/1
f 21/21/1 34/34/1 26/26/1
f 26/26/1 34/34/1 27/27/1
f 34/34/1 29/29/1 27/27/1
